<mxfile host="Electron" modified="2023-11-17T11:41:58.306Z" agent="Mozilla/5.0 (Windows NT 10.0; Win64; x64) AppleWebKit/537.36 (KHTML, like Gecko) draw.io/22.0.3 Chrome/114.0.5735.289 Electron/25.8.4 Safari/537.36" etag="-6O3JoLuhRnbeojKTpl3" version="22.0.3" type="device">
  <diagram name="Sida-1" id="ipbwMo74mxSwVp1taX5c">
    <mxGraphModel dx="1235" dy="1900" grid="1" gridSize="10" guides="1" tooltips="1" connect="1" arrows="1" fold="1" page="1" pageScale="1" pageWidth="827" pageHeight="1169" math="0" shadow="0">
      <root>
        <mxCell id="0" />
        <mxCell id="1" parent="0" />
        <mxCell id="J9RWnxoPi7RomkCa6fw_-1" value="" style="rounded=0;whiteSpace=wrap;html=1;fillColor=#f8cecc;strokeColor=#b85450;" vertex="1" parent="1">
          <mxGeometry x="444" y="-929" width="40" height="40" as="geometry" />
        </mxCell>
        <mxCell id="d9aKfPFxTFNysVRFon5L-1" value="" style="rounded=0;whiteSpace=wrap;html=1;fillColor=#fff2cc;strokeColor=#d6b656;" parent="1" vertex="1">
          <mxGeometry x="264" y="-889" width="20" height="37.5" as="geometry" />
        </mxCell>
        <mxCell id="d9aKfPFxTFNysVRFon5L-44" value="" style="whiteSpace=wrap;html=1;aspect=fixed;fillColor=#d5e8d4;strokeColor=#82b366;" parent="1" vertex="1">
          <mxGeometry x="284" y="-969" width="40" height="40" as="geometry" />
        </mxCell>
        <mxCell id="d9aKfPFxTFNysVRFon5L-45" value="" style="rounded=0;whiteSpace=wrap;html=1;fillColor=#f8cecc;strokeColor=#b85450;" parent="1" vertex="1">
          <mxGeometry x="324" y="-929" width="20" height="40" as="geometry" />
        </mxCell>
        <mxCell id="d9aKfPFxTFNysVRFon5L-47" value="" style="rounded=0;whiteSpace=wrap;html=1;fillColor=#fff2cc;strokeColor=#d6b656;" parent="1" vertex="1">
          <mxGeometry x="344" y="-889" width="20" height="37.5" as="geometry" />
        </mxCell>
        <mxCell id="d9aKfPFxTFNysVRFon5L-48" value="" style="rounded=0;whiteSpace=wrap;html=1;fillColor=#f8cecc;strokeColor=#b85450;" parent="1" vertex="1">
          <mxGeometry x="364" y="-929" width="20" height="40" as="geometry" />
        </mxCell>
        <mxCell id="d9aKfPFxTFNysVRFon5L-55" value="" style="rounded=0;whiteSpace=wrap;html=1;fillColor=#fff2cc;strokeColor=#d6b656;" parent="1" vertex="1">
          <mxGeometry x="424" y="-889" width="20" height="37.5" as="geometry" />
        </mxCell>
        <mxCell id="d9aKfPFxTFNysVRFon5L-49" value="" style="whiteSpace=wrap;html=1;aspect=fixed;fillColor=#d5e8d4;strokeColor=#82b366;" parent="1" vertex="1">
          <mxGeometry x="384" y="-969" width="40" height="40" as="geometry" />
        </mxCell>
        <mxCell id="jdMiFI14pzv9SSoVS_cG-1" value="" style="endArrow=none;html=1;rounded=0;" parent="1" edge="1">
          <mxGeometry width="50" height="50" relative="1" as="geometry">
            <mxPoint x="264" y="-809" as="sourcePoint" />
            <mxPoint x="264" y="-969" as="targetPoint" />
            <Array as="points" />
          </mxGeometry>
        </mxCell>
        <mxCell id="jdMiFI14pzv9SSoVS_cG-2" value="" style="endArrow=none;html=1;rounded=0;" parent="1" source="d9aKfPFxTFNysVRFon5L-44" edge="1">
          <mxGeometry width="50" height="50" relative="1" as="geometry">
            <mxPoint x="303.5" y="-809" as="sourcePoint" />
            <mxPoint x="303.5" y="-969" as="targetPoint" />
            <Array as="points" />
          </mxGeometry>
        </mxCell>
        <mxCell id="jdMiFI14pzv9SSoVS_cG-3" value="" style="endArrow=none;html=1;rounded=0;" parent="1" edge="1">
          <mxGeometry width="50" height="50" relative="1" as="geometry">
            <mxPoint x="344" y="-809" as="sourcePoint" />
            <mxPoint x="344" y="-969" as="targetPoint" />
            <Array as="points" />
          </mxGeometry>
        </mxCell>
        <mxCell id="jdMiFI14pzv9SSoVS_cG-4" value="" style="endArrow=none;html=1;rounded=0;" parent="1" edge="1">
          <mxGeometry width="50" height="50" relative="1" as="geometry">
            <mxPoint x="384" y="-809" as="sourcePoint" />
            <mxPoint x="384" y="-969" as="targetPoint" />
            <Array as="points" />
          </mxGeometry>
        </mxCell>
        <mxCell id="jdMiFI14pzv9SSoVS_cG-5" value="" style="endArrow=none;html=1;rounded=0;" parent="1" edge="1">
          <mxGeometry width="50" height="50" relative="1" as="geometry">
            <mxPoint x="424" y="-809" as="sourcePoint" />
            <mxPoint x="424" y="-969" as="targetPoint" />
            <Array as="points" />
          </mxGeometry>
        </mxCell>
        <mxCell id="jdMiFI14pzv9SSoVS_cG-6" value="" style="endArrow=none;html=1;rounded=0;" parent="1" edge="1" source="J9RWnxoPi7RomkCa6fw_-1">
          <mxGeometry width="50" height="50" relative="1" as="geometry">
            <mxPoint x="464" y="-809" as="sourcePoint" />
            <mxPoint x="464" y="-969" as="targetPoint" />
            <Array as="points" />
          </mxGeometry>
        </mxCell>
        <mxCell id="jdMiFI14pzv9SSoVS_cG-7" value="" style="endArrow=none;html=1;rounded=0;" parent="1" edge="1">
          <mxGeometry width="50" height="50" relative="1" as="geometry">
            <mxPoint x="504" y="-809" as="sourcePoint" />
            <mxPoint x="504" y="-969" as="targetPoint" />
            <Array as="points" />
          </mxGeometry>
        </mxCell>
        <mxCell id="jdMiFI14pzv9SSoVS_cG-8" value="" style="endArrow=none;html=1;rounded=0;" parent="1" edge="1">
          <mxGeometry width="50" height="50" relative="1" as="geometry">
            <mxPoint x="544" y="-809" as="sourcePoint" />
            <mxPoint x="544" y="-969" as="targetPoint" />
            <Array as="points" />
          </mxGeometry>
        </mxCell>
        <mxCell id="jdMiFI14pzv9SSoVS_cG-9" value="" style="endArrow=none;html=1;rounded=0;" parent="1" edge="1">
          <mxGeometry width="50" height="50" relative="1" as="geometry">
            <mxPoint x="584" y="-809" as="sourcePoint" />
            <mxPoint x="584" y="-969" as="targetPoint" />
            <Array as="points" />
          </mxGeometry>
        </mxCell>
        <mxCell id="jdMiFI14pzv9SSoVS_cG-10" value="" style="endArrow=none;html=1;rounded=0;" parent="1" edge="1">
          <mxGeometry width="50" height="50" relative="1" as="geometry">
            <mxPoint x="624" y="-809" as="sourcePoint" />
            <mxPoint x="624" y="-969" as="targetPoint" />
            <Array as="points" />
          </mxGeometry>
        </mxCell>
        <mxCell id="jdMiFI14pzv9SSoVS_cG-65" value="A" style="text;html=1;strokeColor=none;fillColor=none;align=center;verticalAlign=middle;whiteSpace=wrap;rounded=0;" parent="1" vertex="1">
          <mxGeometry x="214" y="-969" width="60" height="30" as="geometry" />
        </mxCell>
        <mxCell id="jdMiFI14pzv9SSoVS_cG-66" value="B" style="text;html=1;strokeColor=none;fillColor=none;align=center;verticalAlign=middle;whiteSpace=wrap;rounded=0;" parent="1" vertex="1">
          <mxGeometry x="214" y="-929" width="60" height="30" as="geometry" />
        </mxCell>
        <mxCell id="jdMiFI14pzv9SSoVS_cG-67" value="C" style="text;html=1;strokeColor=none;fillColor=none;align=center;verticalAlign=middle;whiteSpace=wrap;rounded=0;" parent="1" vertex="1">
          <mxGeometry x="214" y="-889" width="60" height="30" as="geometry" />
        </mxCell>
        <mxCell id="jdMiFI14pzv9SSoVS_cG-69" value="Task&lt;span style=&quot;white-space: pre;&quot;&gt;&#x9;&lt;/span&gt;&lt;span style=&quot;white-space: pre;&quot;&gt;&#x9;&lt;/span&gt;" style="swimlane;fontStyle=0;childLayout=stackLayout;horizontal=1;startSize=30;horizontalStack=0;resizeParent=1;resizeParentMax=0;resizeLast=0;collapsible=1;marginBottom=0;whiteSpace=wrap;html=1;" parent="1" vertex="1">
          <mxGeometry x="224" y="-1129" width="50" height="120" as="geometry" />
        </mxCell>
        <mxCell id="jdMiFI14pzv9SSoVS_cG-70" value="A" style="text;strokeColor=none;fillColor=none;align=left;verticalAlign=middle;spacingLeft=4;spacingRight=4;overflow=hidden;points=[[0,0.5],[1,0.5]];portConstraint=eastwest;rotatable=0;whiteSpace=wrap;html=1;" parent="jdMiFI14pzv9SSoVS_cG-69" vertex="1">
          <mxGeometry y="30" width="50" height="30" as="geometry" />
        </mxCell>
        <mxCell id="jdMiFI14pzv9SSoVS_cG-71" value="B" style="text;strokeColor=none;fillColor=none;align=left;verticalAlign=middle;spacingLeft=4;spacingRight=4;overflow=hidden;points=[[0,0.5],[1,0.5]];portConstraint=eastwest;rotatable=0;whiteSpace=wrap;html=1;" parent="jdMiFI14pzv9SSoVS_cG-69" vertex="1">
          <mxGeometry y="60" width="50" height="30" as="geometry" />
        </mxCell>
        <mxCell id="jdMiFI14pzv9SSoVS_cG-72" value="C" style="text;strokeColor=none;fillColor=none;align=left;verticalAlign=middle;spacingLeft=4;spacingRight=4;overflow=hidden;points=[[0,0.5],[1,0.5]];portConstraint=eastwest;rotatable=0;whiteSpace=wrap;html=1;" parent="jdMiFI14pzv9SSoVS_cG-69" vertex="1">
          <mxGeometry y="90" width="50" height="30" as="geometry" />
        </mxCell>
        <mxCell id="jdMiFI14pzv9SSoVS_cG-73" value="D=T" style="swimlane;fontStyle=0;childLayout=stackLayout;horizontal=1;startSize=30;horizontalStack=0;resizeParent=1;resizeParentMax=0;resizeLast=0;collapsible=1;marginBottom=0;whiteSpace=wrap;html=1;" parent="1" vertex="1">
          <mxGeometry x="274" y="-1129" width="50" height="120" as="geometry" />
        </mxCell>
        <mxCell id="jdMiFI14pzv9SSoVS_cG-74" value="3" style="text;strokeColor=none;fillColor=none;align=left;verticalAlign=middle;spacingLeft=4;spacingRight=4;overflow=hidden;points=[[0,0.5],[1,0.5]];portConstraint=eastwest;rotatable=0;whiteSpace=wrap;html=1;" parent="jdMiFI14pzv9SSoVS_cG-73" vertex="1">
          <mxGeometry y="30" width="50" height="30" as="geometry" />
        </mxCell>
        <mxCell id="jdMiFI14pzv9SSoVS_cG-75" value="5" style="text;strokeColor=none;fillColor=none;align=left;verticalAlign=middle;spacingLeft=4;spacingRight=4;overflow=hidden;points=[[0,0.5],[1,0.5]];portConstraint=eastwest;rotatable=0;whiteSpace=wrap;html=1;" parent="jdMiFI14pzv9SSoVS_cG-73" vertex="1">
          <mxGeometry y="60" width="50" height="30" as="geometry" />
        </mxCell>
        <mxCell id="jdMiFI14pzv9SSoVS_cG-76" value="2" style="text;strokeColor=none;fillColor=none;align=left;verticalAlign=middle;spacingLeft=4;spacingRight=4;overflow=hidden;points=[[0,0.5],[1,0.5]];portConstraint=eastwest;rotatable=0;whiteSpace=wrap;html=1;" parent="jdMiFI14pzv9SSoVS_cG-73" vertex="1">
          <mxGeometry y="90" width="50" height="30" as="geometry" />
        </mxCell>
        <mxCell id="jdMiFI14pzv9SSoVS_cG-78" value="C" style="swimlane;fontStyle=0;childLayout=stackLayout;horizontal=1;startSize=30;horizontalStack=0;resizeParent=1;resizeParentMax=0;resizeLast=0;collapsible=1;marginBottom=0;whiteSpace=wrap;html=1;" parent="1" vertex="1">
          <mxGeometry x="324" y="-1129" width="50" height="120" as="geometry" />
        </mxCell>
        <mxCell id="jdMiFI14pzv9SSoVS_cG-79" value="1" style="text;strokeColor=none;fillColor=none;align=left;verticalAlign=middle;spacingLeft=4;spacingRight=4;overflow=hidden;points=[[0,0.5],[1,0.5]];portConstraint=eastwest;rotatable=0;whiteSpace=wrap;html=1;" parent="jdMiFI14pzv9SSoVS_cG-78" vertex="1">
          <mxGeometry y="30" width="50" height="30" as="geometry" />
        </mxCell>
        <mxCell id="jdMiFI14pzv9SSoVS_cG-80" value="2" style="text;strokeColor=none;fillColor=none;align=left;verticalAlign=middle;spacingLeft=4;spacingRight=4;overflow=hidden;points=[[0,0.5],[1,0.5]];portConstraint=eastwest;rotatable=0;whiteSpace=wrap;html=1;" parent="jdMiFI14pzv9SSoVS_cG-78" vertex="1">
          <mxGeometry y="60" width="50" height="30" as="geometry" />
        </mxCell>
        <mxCell id="jdMiFI14pzv9SSoVS_cG-81" value="0.5" style="text;strokeColor=none;fillColor=none;align=left;verticalAlign=middle;spacingLeft=4;spacingRight=4;overflow=hidden;points=[[0,0.5],[1,0.5]];portConstraint=eastwest;rotatable=0;whiteSpace=wrap;html=1;" parent="jdMiFI14pzv9SSoVS_cG-78" vertex="1">
          <mxGeometry y="90" width="50" height="30" as="geometry" />
        </mxCell>
        <mxCell id="jdMiFI14pzv9SSoVS_cG-82" value="LCM(3,5,2) = 30&amp;nbsp;" style="text;html=1;strokeColor=none;fillColor=none;align=center;verticalAlign=middle;whiteSpace=wrap;rounded=0;" parent="1" vertex="1">
          <mxGeometry x="424" y="-1089" width="100" height="30" as="geometry" />
        </mxCell>
        <mxCell id="jdMiFI14pzv9SSoVS_cG-85" value="" style="whiteSpace=wrap;html=1;aspect=fixed;fillColor=#f8cecc;strokeColor=#b85450;direction=south;" parent="1" vertex="1">
          <mxGeometry x="574" y="-1099" width="40" height="40" as="geometry" />
        </mxCell>
        <mxCell id="jdMiFI14pzv9SSoVS_cG-86" value="" style="whiteSpace=wrap;html=1;aspect=fixed;fillColor=#d5e8d4;strokeColor=#82b366;" parent="1" vertex="1">
          <mxGeometry x="574" y="-1149" width="40" height="40" as="geometry" />
        </mxCell>
        <mxCell id="jdMiFI14pzv9SSoVS_cG-87" value="A =" style="text;html=1;strokeColor=none;fillColor=none;align=center;verticalAlign=middle;whiteSpace=wrap;rounded=0;" parent="1" vertex="1">
          <mxGeometry x="524" y="-1149" width="60" height="40" as="geometry" />
        </mxCell>
        <mxCell id="jdMiFI14pzv9SSoVS_cG-88" value="B =" style="text;html=1;strokeColor=none;fillColor=none;align=center;verticalAlign=middle;whiteSpace=wrap;rounded=0;" parent="1" vertex="1">
          <mxGeometry x="524" y="-1094" width="60" height="30" as="geometry" />
        </mxCell>
        <mxCell id="jdMiFI14pzv9SSoVS_cG-89" value="C =" style="text;html=1;strokeColor=none;fillColor=none;align=center;verticalAlign=middle;whiteSpace=wrap;rounded=0;" parent="1" vertex="1">
          <mxGeometry x="524" y="-1044" width="60" height="30" as="geometry" />
        </mxCell>
        <mxCell id="jdMiFI14pzv9SSoVS_cG-90" value="Prio" style="swimlane;fontStyle=0;childLayout=stackLayout;horizontal=1;startSize=30;horizontalStack=0;resizeParent=1;resizeParentMax=0;resizeLast=0;collapsible=1;marginBottom=0;whiteSpace=wrap;html=1;" parent="1" vertex="1">
          <mxGeometry x="374" y="-1129" width="50" height="120" as="geometry" />
        </mxCell>
        <mxCell id="jdMiFI14pzv9SSoVS_cG-91" value="Mid" style="text;strokeColor=none;fillColor=none;align=left;verticalAlign=middle;spacingLeft=4;spacingRight=4;overflow=hidden;points=[[0,0.5],[1,0.5]];portConstraint=eastwest;rotatable=0;whiteSpace=wrap;html=1;" parent="jdMiFI14pzv9SSoVS_cG-90" vertex="1">
          <mxGeometry y="30" width="50" height="30" as="geometry" />
        </mxCell>
        <mxCell id="jdMiFI14pzv9SSoVS_cG-92" value="Low" style="text;strokeColor=none;fillColor=none;align=left;verticalAlign=middle;spacingLeft=4;spacingRight=4;overflow=hidden;points=[[0,0.5],[1,0.5]];portConstraint=eastwest;rotatable=0;whiteSpace=wrap;html=1;" parent="jdMiFI14pzv9SSoVS_cG-90" vertex="1">
          <mxGeometry y="60" width="50" height="30" as="geometry" />
        </mxCell>
        <mxCell id="jdMiFI14pzv9SSoVS_cG-93" value="High" style="text;strokeColor=none;fillColor=none;align=left;verticalAlign=middle;spacingLeft=4;spacingRight=4;overflow=hidden;points=[[0,0.5],[1,0.5]];portConstraint=eastwest;rotatable=0;whiteSpace=wrap;html=1;" parent="jdMiFI14pzv9SSoVS_cG-90" vertex="1">
          <mxGeometry y="90" width="50" height="30" as="geometry" />
        </mxCell>
        <mxCell id="jdMiFI14pzv9SSoVS_cG-95" value="&lt;font style=&quot;font-size: 14px;&quot;&gt;RM (Rate Monotonic) Scheduling&lt;/font&gt;" style="text;html=1;strokeColor=none;fillColor=none;align=center;verticalAlign=middle;whiteSpace=wrap;rounded=0;" parent="1" vertex="1">
          <mxGeometry x="194" y="-1169" width="270" height="40" as="geometry" />
        </mxCell>
        <mxCell id="jdMiFI14pzv9SSoVS_cG-96" value="t=0" style="text;html=1;strokeColor=none;fillColor=none;align=center;verticalAlign=middle;whiteSpace=wrap;rounded=0;" parent="1" vertex="1">
          <mxGeometry x="244" y="-799" width="40" height="30" as="geometry" />
        </mxCell>
        <mxCell id="jdMiFI14pzv9SSoVS_cG-97" value="1" style="text;html=1;strokeColor=none;fillColor=none;align=center;verticalAlign=middle;whiteSpace=wrap;rounded=0;" parent="1" vertex="1">
          <mxGeometry x="294" y="-799" width="20" height="30" as="geometry" />
        </mxCell>
        <mxCell id="jdMiFI14pzv9SSoVS_cG-98" value="2" style="text;html=1;strokeColor=none;fillColor=none;align=center;verticalAlign=middle;whiteSpace=wrap;rounded=0;" parent="1" vertex="1">
          <mxGeometry x="334" y="-798" width="20" height="30" as="geometry" />
        </mxCell>
        <mxCell id="jdMiFI14pzv9SSoVS_cG-99" value="3" style="text;html=1;strokeColor=none;fillColor=none;align=center;verticalAlign=middle;whiteSpace=wrap;rounded=0;" parent="1" vertex="1">
          <mxGeometry x="374" y="-799" width="20" height="30" as="geometry" />
        </mxCell>
        <mxCell id="jdMiFI14pzv9SSoVS_cG-100" value="4" style="text;html=1;strokeColor=none;fillColor=none;align=center;verticalAlign=middle;whiteSpace=wrap;rounded=0;" parent="1" vertex="1">
          <mxGeometry x="414" y="-799" width="20" height="30" as="geometry" />
        </mxCell>
        <mxCell id="jdMiFI14pzv9SSoVS_cG-101" value="5" style="text;html=1;strokeColor=none;fillColor=none;align=center;verticalAlign=middle;whiteSpace=wrap;rounded=0;" parent="1" vertex="1">
          <mxGeometry x="454" y="-799" width="20" height="30" as="geometry" />
        </mxCell>
        <mxCell id="jdMiFI14pzv9SSoVS_cG-102" value="6" style="text;html=1;strokeColor=none;fillColor=none;align=center;verticalAlign=middle;whiteSpace=wrap;rounded=0;" parent="1" vertex="1">
          <mxGeometry x="494" y="-799" width="20" height="30" as="geometry" />
        </mxCell>
        <mxCell id="jdMiFI14pzv9SSoVS_cG-103" value="7" style="text;html=1;strokeColor=none;fillColor=none;align=center;verticalAlign=middle;whiteSpace=wrap;rounded=0;" parent="1" vertex="1">
          <mxGeometry x="534" y="-799" width="20" height="30" as="geometry" />
        </mxCell>
        <mxCell id="jdMiFI14pzv9SSoVS_cG-104" value="8" style="text;html=1;strokeColor=none;fillColor=none;align=center;verticalAlign=middle;whiteSpace=wrap;rounded=0;" parent="1" vertex="1">
          <mxGeometry x="574" y="-799" width="20" height="30" as="geometry" />
        </mxCell>
        <mxCell id="jdMiFI14pzv9SSoVS_cG-105" value="9" style="text;html=1;strokeColor=none;fillColor=none;align=center;verticalAlign=middle;whiteSpace=wrap;rounded=0;" parent="1" vertex="1">
          <mxGeometry x="614" y="-799" width="20" height="30" as="geometry" />
        </mxCell>
        <mxCell id="d9aKfPFxTFNysVRFon5L-2" value="" style="rounded=0;whiteSpace=wrap;html=1;fillColor=#fff2cc;strokeColor=#d6b656;" parent="1" vertex="1">
          <mxGeometry x="574" y="-1049" width="20" height="37.5" as="geometry" />
        </mxCell>
        <mxCell id="d9aKfPFxTFNysVRFon5L-4" value="" style="endArrow=classic;html=1;rounded=0;strokeColor=#FF0000;" parent="1" edge="1">
          <mxGeometry width="50" height="50" relative="1" as="geometry">
            <mxPoint x="343.5" y="-869" as="sourcePoint" />
            <mxPoint x="343.5" y="-899" as="targetPoint" />
          </mxGeometry>
        </mxCell>
        <mxCell id="d9aKfPFxTFNysVRFon5L-8" value="" style="endArrow=classic;html=1;rounded=0;strokeColor=#FF0000;" parent="1" edge="1">
          <mxGeometry width="50" height="50" relative="1" as="geometry">
            <mxPoint x="424" y="-869" as="sourcePoint" />
            <mxPoint x="424" y="-899" as="targetPoint" />
          </mxGeometry>
        </mxCell>
        <mxCell id="d9aKfPFxTFNysVRFon5L-12" value="" style="endArrow=classic;html=1;rounded=0;strokeColor=#FF0000;" parent="1" edge="1">
          <mxGeometry width="50" height="50" relative="1" as="geometry">
            <mxPoint x="503.5" y="-869" as="sourcePoint" />
            <mxPoint x="503.5" y="-899" as="targetPoint" />
          </mxGeometry>
        </mxCell>
        <mxCell id="d9aKfPFxTFNysVRFon5L-13" value="" style="endArrow=classic;html=1;rounded=0;strokeColor=#FF0000;" parent="1" edge="1">
          <mxGeometry width="50" height="50" relative="1" as="geometry">
            <mxPoint x="584" y="-869" as="sourcePoint" />
            <mxPoint x="584" y="-899" as="targetPoint" />
          </mxGeometry>
        </mxCell>
        <mxCell id="d9aKfPFxTFNysVRFon5L-30" value="" style="endArrow=classic;html=1;rounded=0;strokeColor=#FF0000;" parent="1" edge="1">
          <mxGeometry width="50" height="50" relative="1" as="geometry">
            <mxPoint x="383.5" y="-949" as="sourcePoint" />
            <mxPoint x="383.5" y="-979" as="targetPoint" />
          </mxGeometry>
        </mxCell>
        <mxCell id="d9aKfPFxTFNysVRFon5L-31" value="" style="endArrow=classic;html=1;rounded=0;strokeColor=#FF0000;" parent="1" edge="1">
          <mxGeometry width="50" height="50" relative="1" as="geometry">
            <mxPoint x="503.5" y="-949" as="sourcePoint" />
            <mxPoint x="503.5" y="-979" as="targetPoint" />
          </mxGeometry>
        </mxCell>
        <mxCell id="d9aKfPFxTFNysVRFon5L-33" value="" style="endArrow=classic;html=1;rounded=0;strokeColor=#FF0000;" parent="1" edge="1">
          <mxGeometry width="50" height="50" relative="1" as="geometry">
            <mxPoint x="623.5" y="-949" as="sourcePoint" />
            <mxPoint x="623.5" y="-979" as="targetPoint" />
          </mxGeometry>
        </mxCell>
        <mxCell id="d9aKfPFxTFNysVRFon5L-39" value="" style="endArrow=classic;html=1;rounded=0;strokeColor=#FF0000;" parent="1" edge="1">
          <mxGeometry width="50" height="50" relative="1" as="geometry">
            <mxPoint x="484" y="-1014" as="sourcePoint" />
            <mxPoint x="484" y="-1044" as="targetPoint" />
          </mxGeometry>
        </mxCell>
        <mxCell id="d9aKfPFxTFNysVRFon5L-50" value="" style="endArrow=classic;html=1;rounded=0;strokeColor=#FF0000;" parent="1" edge="1">
          <mxGeometry width="50" height="50" relative="1" as="geometry">
            <mxPoint x="342.95" y="-869" as="sourcePoint" />
            <mxPoint x="342.95" y="-899" as="targetPoint" />
          </mxGeometry>
        </mxCell>
        <mxCell id="d9aKfPFxTFNysVRFon5L-51" value="D =&amp;nbsp;" style="text;html=1;strokeColor=none;fillColor=none;align=center;verticalAlign=middle;whiteSpace=wrap;rounded=0;" parent="1" vertex="1">
          <mxGeometry x="444" y="-1046.5" width="40" height="30" as="geometry" />
        </mxCell>
        <mxCell id="d9aKfPFxTFNysVRFon5L-54" value="" style="endArrow=none;html=1;rounded=0;entryX=0.5;entryY=0;entryDx=0;entryDy=0;" parent="1" target="d9aKfPFxTFNysVRFon5L-44" edge="1">
          <mxGeometry width="50" height="50" relative="1" as="geometry">
            <mxPoint x="303.5" y="-809" as="sourcePoint" />
            <mxPoint x="303.5" y="-969" as="targetPoint" />
            <Array as="points" />
          </mxGeometry>
        </mxCell>
        <mxCell id="J9RWnxoPi7RomkCa6fw_-3" value="" style="endArrow=none;html=1;rounded=0;" edge="1" parent="1">
          <mxGeometry width="50" height="50" relative="1" as="geometry">
            <mxPoint x="464" y="-809" as="sourcePoint" />
            <mxPoint x="464" y="-969" as="targetPoint" />
            <Array as="points" />
          </mxGeometry>
        </mxCell>
        <mxCell id="d9aKfPFxTFNysVRFon5L-24" value="" style="endArrow=classic;html=1;rounded=0;strokeColor=#FF0000;" parent="1" edge="1">
          <mxGeometry width="50" height="50" relative="1" as="geometry">
            <mxPoint x="464" y="-909" as="sourcePoint" />
            <mxPoint x="464" y="-939" as="targetPoint" />
          </mxGeometry>
        </mxCell>
        <mxCell id="J9RWnxoPi7RomkCa6fw_-5" value="" style="endArrow=classic;html=1;rounded=0;exitX=0.5;exitY=0;exitDx=0;exitDy=0;" edge="1" parent="1" source="J9RWnxoPi7RomkCa6fw_-6">
          <mxGeometry width="50" height="50" relative="1" as="geometry">
            <mxPoint x="434" y="-739" as="sourcePoint" />
            <mxPoint x="464" y="-889" as="targetPoint" />
          </mxGeometry>
        </mxCell>
        <mxCell id="J9RWnxoPi7RomkCa6fw_-6" value="Deadline miss occurrs here" style="text;html=1;strokeColor=none;fillColor=none;align=center;verticalAlign=middle;whiteSpace=wrap;rounded=0;" vertex="1" parent="1">
          <mxGeometry x="389" y="-749" width="90" height="30" as="geometry" />
        </mxCell>
      </root>
    </mxGraphModel>
  </diagram>
</mxfile>
